<?xml version="1.0" standalone="no"?>
<!DOCTYPE svg PUBLIC "-//W3C//DTD SVG 1.1//EN" "http://www.w3.org/Graphics/SVG/1.1/DTD/svg11.dtd">
<svg t="1735854428153" class="icon" viewBox="0 0 1024 1024" version="1.1" xmlns="http://www.w3.org/2000/svg" p-id="10112" xmlns:xlink="http://www.w3.org/1999/xlink" width="81" height="81">
    <!-- 文件夹部分 -->
    <path d="M476.48 202.752A96 96 0 0 0 396.64 160H256a96 96 0 0 0-96 96v224h704v-128a96 96 0 0 0-96-96h-204.608a96 96 0 0 1-79.904-42.752l-6.976-10.496z" fill="#FFE179" p-id="10113"></path>
    <path d="M160 448a96 96 0 0 1 96-96h512a96 96 0 0 1 96 96v288a96 96 0 0 1-96 96H256a96 96 0 0 1-96-96v-288z" fill="#FAB500" p-id="10114"></path>

</svg>
