<?xml version="1.0" standalone="no"?><!DOCTYPE svg PUBLIC "-//W3C//DTD SVG 1.1//EN" "http://www.w3.org/Graphics/SVG/1.1/DTD/svg11.dtd"><svg t="1735854013296" class="icon" viewBox="0 0 1024 1024" version="1.1" xmlns="http://www.w3.org/2000/svg" p-id="9562" xmlns:xlink="http://www.w3.org/1999/xlink" width="81" height="81"><path d="M454.912 410.069333c-1.28 0.768-2.645333 2.432-2.645333 5.504v192.853334c0 3.029333 1.408 4.693333 2.645333 5.461333a2.986667 2.986667 0 0 0 1.536 0.512c0.213333 0 0.682667 0 1.493333-0.554667l153.856-96.426666c1.322667-0.853333 2.56-2.602667 2.56-5.418667 0-2.858667-1.194667-4.608-2.56-5.418667l-153.856-96.426666c-0.810667-0.554667-1.28-0.554667-1.493333-0.554667a3.072 3.072 0 0 0-1.536 0.469333z m30.208-43.349333c-39.168-24.533333-84.053333 7.082667-84.053333 48.853333v192.853334c0 41.770667 44.885333 73.386667 84.053333 48.810666l153.856-96.426666c35.456-22.186667 35.498667-75.434667 0-97.621334l-153.856-96.426666z" p-id="9563" fill="#1296db"></path><path d="M256 153.6A102.4 102.4 0 0 0 153.6 256v512A102.4 102.4 0 0 0 256 870.4h512a102.4 102.4 0 0 0 102.4-102.4V256A102.4 102.4 0 0 0 768 153.6H256zM102.4 256A153.6 153.6 0 0 1 256 102.4h512A153.6 153.6 0 0 1 921.6 256v512a153.6 153.6 0 0 1-153.6 153.6H256A153.6 153.6 0 0 1 102.4 768V256z" p-id="9564" fill="#1296db"></path></svg>